HIERARCHY
ROOT Hips
{
	OFFSET 0.000000 0.000000 0.000000 
	CHANNELS 6 Xposition Yposition Zposition Yrotation Zrotation Xrotation 
	JOINT Lumbar
	{
		OFFSET 0.000000 0.000000 0.000000 
		CHANNELS 3 Zrotation Xrotation Yrotation
		JOINT Neck
		{
			OFFSET 0.000000 0.445665 0.000000 
			CHANNELS 3 Zrotation Xrotation Yrotation
			End Site
			{
				OFFSET 0.000000 0.227535 0.000000 
			}
		}
		JOINT RightShoulder
		{
			OFFSET 0.019635 0.377685 0.194865 
			CHANNELS 3 Zrotation Xrotation Yrotation
			JOINT RightElbow
			{
				OFFSET 0.000000 -0.243375 0.000000 
				CHANNELS 2 Zrotation Yrotation
				JOINT RightWrist
				{
					OFFSET 0.000000 -0.264825 0.000000 
					CHANNELS 2 Zrotation Xrotation
					End Site
					{
						OFFSET 0.006600 -0.176220 0.000990 
					}
				}
			}
		}
		JOINT LeftShoulder
		{
			OFFSET 0.019635 0.377685 -0.194865 
			CHANNELS 3 Zrotation Xrotation Yrotation
			JOINT LeftElbow
			{
				OFFSET 0.000000 -0.243375 0.000000 
				CHANNELS 2 Zrotation Yrotation
				JOINT LeftWrist
				{
					OFFSET 0.000000 -0.264825 0.000000 
					CHANNELS 2 Zrotation Xrotation
					End Site
					{
						OFFSET 0.006600 -0.176220 -0.000990 
					}
				}
			}
		}
	}
	JOINT RightHip
	{
		OFFSET 0.052140 -0.069960 0.075570 
		CHANNELS 3 Zrotation Xrotation Yrotation
		JOINT RightKnee
		{
			OFFSET 0.000000 -0.402270 0.000000 
			CHANNELS 1 Zrotation
			JOINT RightAnkle
			{
				OFFSET 0.000000 -0.404085 0.000000 
				CHANNELS 3 Zrotation Xrotation Yrotation
				End Site
				{
					OFFSET 0.204105 -0.089430 0.008415 
				}
			}
		}
	}
	JOINT LeftHip
	{
		OFFSET 0.052140 -0.069960 -0.075570 
		CHANNELS 3 Zrotation Xrotation Yrotation
		JOINT LeftKnee
		{
			OFFSET 0.000000 -0.402270 0.000000 
			CHANNELS 1 Zrotation
			JOINT LeftAnkle
			{
				OFFSET 0.000000 -0.404085 0.000000 
				CHANNELS 3 Zrotation Xrotation Yrotation
				End Site
				{
					OFFSET 0.204105 -0.089430 -0.008415 
				}
			}
		}
	}
}
MOTION
Frames: 28
Frame Time: 0.02
0.00168 0.00041 0.00032 26.53892 -16.42558 -2.8988 45.46368 -0.18378 -8.0164 -14.80526 0.5622 -1.10343 -20.55351 -2.58718 -23.46102 27.8055 146.68131 21.37325 10.4636 -28.30939 6.72234 4.42886 33.56128 -105.26559 16.30298 -1.9548 27.14934 -4.01218 -3.57561 -20.24865 -6.77261 -3.7149 -4.04235 31.45184 3.72463 2.51599 -24.1879 -6.66535 2.76491 3.58104
0.00026 8e-05 0.00104 26.71829 -16.48406 -2.95699 45.3368 -0.18246 -7.958 -14.6285 0.71352 -1.10508 -20.46658 -2.78718 -22.35673 27.29931 141.3928 19.94693 9.57967 -27.93795 6.65959 4.5484 33.41589 -105.2748 16.26837 -1.9605 27.29294 -4.00702 -3.76803 -20.27438 -6.78257 -3.71867 -4.04419 31.66329 3.76461 2.5773 -24.2159 -6.66581 2.74003 3.56793
-0.00117 -0.00024 0.00176 26.89727 -16.54228 -3.01501 45.21021 -0.18117 -7.89977 -14.45241 0.86443 -1.10673 -20.3799 -2.98654 -21.25588 26.79472 136.12076 18.52507 8.69851 -27.5677 6.59683 4.66774 33.27077 -105.28427 16.23399 -1.96622 27.43603 -4.00196 -3.96029 -20.30005 -6.79247 -3.72241 -4.04601 31.87405 3.80461 2.63918 -24.24383 -6.66625 2.71514 3.55482
-0.00259 -0.00056 0.00248 27.07612 -16.60056 -3.07303 45.0837 -0.17986 -7.84155 -14.27622 1.0153 -1.10837 -20.29324 -3.18592 -20.15496 26.29009 130.84833 17.10309 7.81727 -27.19742 6.53425 4.78688 33.1258 -105.29323 16.19942 -1.97186 27.57917 -3.99683 -4.15218 -20.3257 -6.8024 -3.72617 -4.04784 32.08484 3.84449 2.70045 -24.27175 -6.66671 2.69032 3.54174
-0.00402 -0.00089 0.00321 27.25528 -16.65914 -3.13122 44.95693 -0.17853 -7.78314 -14.09932 1.16655 -1.11002 -20.20635 -3.38592 -19.05069 25.78385 125.56006 15.67682 6.93337 -26.82593 6.47173 4.9063 32.98063 -105.30255 16.1648 -1.97759 27.72286 -3.99157 -4.34408 -20.35139 -6.81239 -3.72996 -4.04969 32.29634 3.88426 2.7608 -24.29974 -6.66719 2.66555 3.5287
-0.00544 -0.00121 0.00392 27.43388 -16.71659 -3.18889 44.83073 -0.17732 -7.72531 -13.92496 1.31672 -1.11166 -20.1201 -3.58391 -17.95718 25.28278 120.32282 14.2644 6.05807 -26.45831 6.40847 5.02557 32.83564 -105.31276 16.13105 -1.98335 27.86467 -3.98692 -4.53709 -20.37704 -6.82211 -3.73358 -4.05145 32.50554 3.92474 2.82586 -24.32752 -6.66758 2.64041 3.51545
-0.00687 -0.00154 0.00465 27.6134 -16.77625 -3.24752 44.70352 -0.17586 -7.66641 -13.74566 1.46891 -1.11332 -20.03267 -3.78578 -16.84297 24.77185 114.98719 12.82528 5.1662 -26.08332 6.34683 5.14459 32.69044 -105.31922 16.09497 -1.98872 28.0101 -3.98106 -4.72762 -20.40274 -6.83235 -3.73756 -4.05339 32.71913 3.96379 2.88151 -24.35568 -6.66813 2.61604 3.50262
-0.00829 -0.00186 0.00537 27.7921 -16.83387 -3.30529 44.57725 -0.17463 -7.60845 -13.57096 1.61924 -1.11496 -19.9463 -3.98397 -15.74831 24.27001 109.74496 11.4115 4.29004 -25.7151 6.28358 5.26461 32.54542 -105.3327 16.0622 -1.99506 28.15221 -3.97631 -4.9205 -20.4284 -6.84212 -3.7412 -4.05516 32.92869 4.00411 2.9456 -24.38351 -6.66854 2.59097 3.48941
-0.0097 -0.00218 0.00608 27.96979 -16.88899 -3.36198 44.45203 -0.17367 -7.55179 -13.40164 1.76734 -1.11659 -19.8613 -4.17816 -14.6753 23.7791 104.60413 10.02525 3.431 -25.35513 6.21875 5.38289 32.40058 -105.3407 16.02887 -2.00017 28.29025 -3.97294 -5.11617 -20.45401 -6.8513 -3.74444 -4.05671 33.1333 4.04619 3.02113 -24.4109 -6.66875 2.56498 3.47569
-0.01119 -0.00252 0.00683 28.15328 -16.9585 -3.4248 44.32045 -0.17113 -7.4881 -13.20062 1.9284 -1.11829 -19.76862 -4.39684 -13.47094 23.22476 98.84136 8.47019 2.46719 -24.94759 6.16419 5.50227 32.25459 -105.33797 15.98492 -2.00507 28.45165 -3.96169 -5.29556 -20.47987 -6.86385 -3.75001 -4.05952 33.36632 4.07877 3.03425 -24.44071 -6.67005 2.5441 3.46477
-0.0125 -0.00282 0.0075 28.3245 -16.99764 -3.4747 44.20252 -0.17196 -7.43893 -13.06696 2.06204 -1.11984 -19.69204 -4.56293 -12.54807 22.80461 94.41575 7.27807 1.72848 -24.64052 6.08721 5.62499 32.11114 -105.38482 15.97222 -2.01507 28.56379 -3.96701 -5.50935 -20.50524 -6.8693 -3.75066 -4.05968 33.53944 4.13098 3.17675 -24.46548 -6.6691 2.51256 3.44804
-0.01332 -0.00303 0.00792 28.46235 -16.95249 -3.48876 44.12059 -0.18204 -7.4325 -13.11652 2.12029 -1.12091 -19.66128 -4.59148 -12.36609 22.75314 93.47547 7.03193 1.57768 -24.61097 5.95531 5.70707 31.97364 -105.3316 15.9683 -1.99814 28.53888 -4.01862 -5.81798 -20.52901 -6.8548 -3.73767 -4.05249 33.54576 4.24092 3.69686 -24.4759 -6.66148 2.45045 3.41432
-0.01396 -0.00321 0.00826 28.58794 -16.87681 -3.48994 44.05267 -0.19556 -7.44009 -13.23435 2.15104 -1.12184 -19.64661 -4.56639 -12.47052 22.83627 93.9022 7.15691 1.65679 -24.682 5.80039 5.79929 31.83886 -105.3605 16.00641 -1.99192 28.46457 -4.08661 -6.16083 -20.55236 -6.83325 -3.71979 -4.04268 33.4921 4.36986 4.34265 -24.4814 -6.65171 2.3779 3.37496
-0.01467 -0.00339 0.00864 28.71884 -16.81598 -3.49726 43.97927 -0.20749 -7.43937 -13.32154 2.19448 -1.12285 -19.62321 -4.5609 -12.46713 22.85759 93.83595 7.14795 1.65223 -24.70575 5.65079 5.92253 31.70352 -105.52064 16.08019 -2.01007 28.41449 -4.1467 -6.48804 -20.57602 -6.81519 -3.70423 -4.03411 33.46782 4.48753 4.91627 -24.48947 -6.64327 2.31097 3.33886
-0.01542 -0.00359 0.00901 28.8504 -16.75182 -3.50327 43.90207 -0.21937 -7.44687 -13.4058 2.23705 -1.12377 -19.60487 -4.57374 -12.37857 22.88215 93.27116 7.00377 1.56701 -24.73615 5.5199 5.90544 31.56538 -105.01646 15.93778 -1.91302 28.35802 -4.20916 -6.81671 -20.59904 -6.79587 -3.68816 -4.02525 33.43557 4.61627 5.55399 -24.49601 -6.63335 2.24025 3.29981
-0.01605 -0.00376 0.00938 28.97823 -16.68629 -3.50906 43.83621 -0.2324 -7.44054 -13.51416 2.27492 -1.12484 -19.58103 -4.53784 -12.52453 22.93155 94.01835 7.21589 1.69584 -24.77675 5.34829 6.1704 31.43366 -105.85633 16.2369 -2.04816 28.30162 -4.27005 -7.14916 -20.62347 -6.77757 -3.6721 -4.01645 33.4043 4.72656 6.08765 -24.50471 -6.62598 2.17503 3.26557
-0.01648 -0.00384 0.00977 29.09392 -16.63399 -3.51632 43.79747 -0.24577 -7.3928 -13.65677 2.30613 -1.12635 -19.52736 -4.36157 -13.34181 23.01878 98.49192 8.43652 2.4328 -24.81878 5.03746 7.3225 31.32002 -110.90458 17.90855 -2.91188 28.27098 -4.32665 -7.49361 -20.65033 -6.76343 -3.65625 -4.00792 33.4028 4.78018 6.30547 -24.51913 -6.62659 2.12702 3.24595
-0.01679 -0.00388 0.01016 29.20706 -16.57969 -3.52393 43.76999 -0.26049 -7.33054 -13.82425 2.33343 -1.128 -19.46943 -4.14127 -14.36935 23.12596 104.16347 9.98302 3.36464 -24.86798 4.69196 8.73907 31.21278 -117.21336 19.99479 -3.99339 28.23974 -4.38024 -7.83809 -20.67888 -6.75067 -3.6408 -3.99968 33.4021 4.81476 6.41379 -24.53609 -6.62979 2.08501 3.23136
-0.01712 -0.00394 0.01054 29.32471 -16.51998 -3.53216 43.73762 -0.27596 -7.27487 -13.99041 2.36306 -1.12959 -19.4207 -3.95397 -15.2368 23.22253 108.98988 11.30217 4.1576 -24.91519 4.38429 9.95979 31.10168 -122.59657 21.78108 -4.91446 28.19979 -4.43268 -8.17696 -20.70775 -6.73746 -3.62575 -3.99164 33.39289 4.85872 6.57071 -24.55292 -6.63154 2.04064 3.21449
-0.01758 -0.00399 0.01094 29.42836 -16.48554 -3.53692 43.70402 -0.28601 -7.22004 -14.11645 2.39022 -1.13116 -19.34261 -3.71144 -16.37955 23.33021 115.10462 12.96149 5.16621 -24.96045 3.98486 11.49346 30.99384 -129.44163 24.03051 -6.09002 28.19556 -4.49674 -8.54363 -20.73222 -6.72308 -3.60789 -3.98199 33.41584 4.90021 6.73683 -24.56554 -6.63434 1.99438 3.19738
-0.01774 -0.00405 0.01131 29.56002 -16.39884 -3.54883 43.67644 -0.30736 -7.15945 -14.33153 2.42089 -1.13281 -19.32351 -3.57235 -17.00409 23.41786 118.83899 13.99414 5.77497 -25.01033 3.76583 12.44654 30.88177 -133.57793 25.42476 -6.79383 28.11802 -4.53513 -8.84823 -20.76597 -6.7118 -3.59626 -3.97591 33.37296 4.94215 6.85624 -24.58724 -6.63563 1.95361 3.18204
-0.01714 -0.00414 0.01156 29.77628 -16.16555 -3.58346 43.65405 -0.3619 -7.08974 -14.78035 2.47119 -1.13466 -19.4766 -3.74525 -16.06876 23.44455 115.39351 13.13606 5.1799 -25.06936 4.07803 11.6563 30.74836 -129.59699 24.25493 -6.08313 27.83436 -4.50809 -9.01473 -20.82734 -6.70646 -3.59971 -3.97849 33.14807 4.98938 6.87209 -24.63655 -6.63205 1.92665 3.1703
-0.01624 -0.00423 0.01177 30.02007 -15.88109 -3.62483 43.63865 -0.42728 -7.01423 -15.31743 2.52331 -1.13658 -19.68781 -4.02082 -14.61863 23.45062 109.56707 11.6503 4.18503 -25.13272 4.5688 10.28568 30.61276 -122.90564 22.22808 -4.90073 27.4787 -4.45454 -9.11351 -20.89752 -6.70461 -3.60976 -3.98483 32.85817 5.03776 6.84434 -24.69432 -6.62697 1.90497 3.16015
-0.01546 -0.00431 0.01201 30.24643 -15.62116 -3.6611 43.62594 -0.48623 -6.93893 -15.81933 2.56922 -1.13847 -19.86661 -4.23983 -13.45239 23.46495 105.02406 10.5015 3.40511 -25.19473 4.96141 9.23137 30.48248 -117.67288 20.66074 -3.97306 27.15774 -4.40971 -9.21981 -20.96208 -6.70275 -3.6182 -3.99023 32.59712 5.08592 6.83677 -24.74625 -6.62258 1.8809 3.14933
-0.01473 -0.00444 0.01222 30.4917 -15.35295 -3.70575 43.58976 -0.55179 -6.87261 -16.30652 2.63892 -1.14038 -20.06962 -4.50036 -12.07901 23.48156 99.65593 9.14163 2.48847 -25.25413 5.42337 7.96838 30.33095 -111.53416 18.81535 -2.88389 26.82511 -4.37806 -9.41959 -21.03355 -6.69443 -3.62101 -3.99254 32.33505 5.13212 6.82383 -24.8069 -6.618 1.85723 3.13856
-0.01383 -0.00447 0.01248 30.70639 -15.0934 -3.73483 43.60284 -0.60589 -6.78737 -16.83848 2.65803 -1.14227 -20.2373 -4.69774 -11.01684 23.49226 95.44723 8.07349 1.76321 -25.32028 5.78529 6.9938 30.22712 -106.61274 17.33623 -2.01462 26.5038 -4.31365 -9.41452 -21.09268 -6.70017 -3.63682 -4.00201 32.06462 5.18294 6.81324 -24.85112 -6.61373 1.83363 3.12789
-0.01242 -0.00422 0.0128 30.81133 -14.83992 -3.71689 43.75919 -0.62772 -6.64242 -17.52726 2.54993 -1.14402 -20.28203 -4.711 -10.89415 23.4556 94.81351 7.9127 1.62536 -25.39873 5.81462 6.99881 30.2193 -105.79272 17.11039 -1.88088 26.19632 -4.15703 -8.81025 -21.11578 -6.7456 -3.68953 -4.03184 31.74487 5.24615 6.81881 -24.85019 -6.60811 1.81114 3.1181
-0.01087 -0.00387 0.0132 30.88842 -14.60253 -3.68356 43.96254 -0.63721 -6.48008 -18.24737 2.38843 -1.1458 -20.29096 -4.6553 -11.10734 23.41939 95.45234 8.07293 1.69851 -25.4836 5.74001 7.30484 30.26517 -106.27087 17.27482 -1.98126 25.90924 -3.96996 -8.01225 -21.12615 -6.80469 -3.7546 -4.06846 31.42699 5.314 6.82861 -24.83211 -6.60334 1.78808 3.10814
